<svg xmlns="http://www.w3.org/2000/svg" width="18" height="18" viewBox="0 0 18 18" fill="none">
  <g clip-path="url(#clip0_1_366)">
    <path fill-rule="evenodd" clip-rule="evenodd" d="M9.71176 2.19787C10.5251 1.41232 11.6145 0.977642 12.7452 0.987468C13.8759 0.997293 14.9575 1.45083 15.7571 2.25041C16.5567 3.04998 17.0102 4.13161 17.02 5.26233C17.0299 6.39305 16.5952 7.4824 15.8096 8.29575L15.8028 8.30278L13.5529 10.5527C13.1157 10.99 12.5895 11.3282 12.0101 11.5443C11.4307 11.7605 10.8117 11.8495 10.1948 11.8053C9.57803 11.7611 8.97793 11.5848 8.43525 11.2883C7.89257 10.9918 7.42001 10.5821 7.0496 10.0869C6.86352 9.83813 6.91434 9.48562 7.16311 9.29954C7.41187 9.11347 7.76439 9.16428 7.95046 9.41305C8.22424 9.77906 8.57353 10.0819 8.97464 10.301C9.37575 10.5202 9.8193 10.6505 10.2752 10.6832C10.7311 10.7158 11.1887 10.65 11.6169 10.4903C12.0452 10.3305 12.4341 10.0806 12.7572 9.7573L15.0037 7.51082C15.5823 6.91002 15.9023 6.1063 15.8951 5.27211C15.8878 4.43635 15.5526 3.63689 14.9616 3.0459C14.3706 2.45491 13.5712 2.11969 12.7354 2.11243C11.9009 2.10517 11.097 2.42544 10.4961 3.00436L9.20912 4.28388C8.98881 4.50291 8.63266 4.50187 8.41363 4.28156C8.1946 4.06125 8.19564 3.7051 8.41595 3.48607L9.71176 2.19787Z" fill="white"/>
    <path fill-rule="evenodd" clip-rule="evenodd" d="M5.9898 6.45556C6.56919 6.23943 7.18829 6.15044 7.8051 6.19461C8.42191 6.23879 9.02201 6.4151 9.56469 6.71159C10.1074 7.00808 10.5799 7.41781 10.9503 7.913C11.1364 8.16176 11.0856 8.51428 10.8368 8.70035C10.5881 8.88643 10.2356 8.83562 10.0495 8.58685C9.7757 8.22084 9.42641 7.918 9.0253 7.69885C8.62419 7.47971 8.18064 7.34939 7.72474 7.31674C7.26883 7.28409 6.81124 7.34987 6.38299 7.50961C5.95475 7.66936 5.56587 7.91934 5.24273 8.2426L2.99625 10.4891C2.41767 11.0899 2.09761 11.8936 2.10486 12.7278C2.11212 13.5635 2.44735 14.363 3.03833 14.954C3.62932 15.545 4.42879 15.8802 5.26454 15.8875C6.09873 15.8947 6.90245 15.5747 7.50325 14.9961L8.78216 13.7172C9.00183 13.4975 9.35798 13.4975 9.57765 13.7172C9.79732 13.9368 9.79732 14.293 9.57765 14.5127L8.28824 15.8021C7.47489 16.5876 6.38549 17.0223 5.25476 17.0124C4.12404 17.0026 3.04241 16.5491 2.24284 15.7495C1.44327 14.9499 0.989725 13.8683 0.979899 12.7376C0.970074 11.6068 1.40475 10.5175 2.19031 9.70415L2.1971 9.69712L4.44709 7.44725C4.44706 7.44727 4.44711 7.44723 4.44709 7.44725C4.88426 7.00994 5.41044 6.67168 5.9898 6.45556Z" fill="white"/>
  </g>
  <defs>
    <clipPath id="clip0_1_366">
      <rect width="18" height="18" fill="white"/>
    </clipPath>
  </defs>
</svg>